<svg width="798" height="94" viewBox="0 0 798 94" fill="none" xmlns="http://www.w3.org/2000/svg">
<path d="M31.04 87.52C24.64 87.52 19.2 86.48 14.72 84.4C10.24 82.4 6.80004 79.6 4.40004 76C2.08004 72.4 0.920044 68.28 0.920044 63.64C0.920044 59.16 2.08004 54.4 4.40004 49.36C6.72004 44.24 10.32 39.04 15.2 33.76C18.8 29.84 22.84 26.2 27.32 22.84C31.8 19.4 36.36 16.28 41 13.48C45.72 10.68 50.32 8.32 54.8 6.39999C59.36 4.47999 63.52 3.08 67.28 2.2C69.36 1.72 71.44 1.36 73.5201 1.12C75.68 0.799996 77.76 0.639996 79.76 0.639996C83.2 0.639996 86.3601 1.08 89.2401 1.95999C92.1201 2.84 94.44 4.24 96.2001 6.16C97.96 8.08 98.84 10.6 98.84 13.72C98.84 15.48 98.52 17.2 97.8801 18.88C97.32 20.56 96.84 21.84 96.44 22.72C96.2 23.2 95.9601 23.44 95.7201 23.44C95.5601 23.44 95.44 23.32 95.36 23.08C95.28 22.76 95.3201 22.44 95.48 22.12C96.2 20.52 96.5601 19.12 96.5601 17.92C96.5601 15.92 95.68 14.48 93.92 13.6C92.24 12.64 89.9201 12.16 86.9601 12.16C83.6001 12.16 79.6401 12.68 75.08 13.72C70.52 14.76 65.68 16.2 60.56 18.04C55.52 19.88 50.48 22 45.44 24.4C40.4 26.8 35.64 29.44 31.16 32.32C26.76 35.12 22.96 38 19.76 40.96C14.48 45.84 10.6 50.44 8.12004 54.76C5.72004 59 4.52004 62.8 4.52004 66.16C4.52004 71.2 6.88004 75.16 11.6 78.04C16.32 80.92 22.64 82.36 30.56 82.36C32.64 82.36 34.8 82.24 37.04 82C39.28 81.76 41.6 81.44 44 81.04C49.68 80 55.44 78.48 61.2801 76.48C67.2001 74.4 72.8401 71.92 78.2001 69.04C83.6401 66.08 88.5601 62.84 92.9601 59.32C97.4401 55.72 101.08 51.92 103.88 47.92C104.68 46.88 105.16 46.36 105.32 46.36C105.4 46.36 105.44 46.48 105.44 46.72C105.44 46.88 105.44 47.08 105.44 47.32C105.44 47.48 105.36 47.76 105.2 48.16C104.4 50.48 102.68 53.08 100.04 55.96C97.4001 58.84 94.0801 61.8 90.0801 64.84C86.0801 67.8 81.6401 70.68 76.76 73.48C71.88 76.28 66.76 78.8 61.4 81.04C56.04 83.2 50.68 84.84 45.32 85.96C40.36 87 35.6 87.52 31.04 87.52ZM23.6 48.16C22.72 48.16 22 48 21.44 47.68C21.12 47.52 20.8 47.24 20.48 46.84C20.16 46.36 20 45.8 20 45.16C20 44.2 20.68 43.16 22.04 42.04C23.48 40.92 26.36 39.96 30.68 39.16C32.12 38.92 33.72 38.72 35.48 38.56C37.24 38.4 39.08 38.32 41 38.32C44.36 38.32 47.76 38.56 51.2001 39.04C54.7201 39.44 57.88 40.12 60.68 41.08C63.56 42.04 65.68 43.28 67.04 44.8C67.52 45.36 67.76 45.92 67.76 46.48C67.76 47.12 67.4401 47.44 66.8 47.44C66.3201 47.44 65.76 47.24 65.12 46.84C63.7601 45.88 61.88 45.16 59.48 44.68C57.16 44.2 54.48 43.96 51.44 43.96C46.08 43.96 40.2 44.64 33.8 46C31.8 46.4 29.92 46.88 28.16 47.44C26.4 47.92 24.88 48.16 23.6 48.16Z" fill="black"/>
<path d="M103.25 82.12C99.81 82.12 97.49 81.48 96.29 80.2C95.09 78.84 94.49 77.36 94.49 75.76C94.49 73.68 95.29 71.48 96.89 69.16C97.85 67.8 98.93 66.28 100.13 64.6C101.33 62.84 102.45 61.2 103.49 59.68C104.53 58.16 105.25 57.08 105.65 56.44C106.21 55.64 106.53 55.12 106.61 54.88C106.77 54.56 106.85 54.24 106.85 53.92C106.85 53.44 106.53 53 105.89 52.6C105.33 52.12 104.37 51.88 103.01 51.88C102.61 51.88 102.25 51.92 101.93 52C101.69 52 101.41 52 101.09 52C100.45 52 100.09 51.96 100.01 51.88L99.65 52.36C97.41 55.32 95.01 58.24 92.45 61.12C89.89 63.92 87.09 66.52 84.05 68.92C83.73 69.16 83.49 69.28 83.33 69.28C83.01 69.28 82.85 69.12 82.85 68.8C82.85 68.16 83.33 67.44 84.29 66.64C86.77 64.56 89.21 62.24 91.61 59.68C94.01 57.04 96.17 54.28 98.09 51.4C97.37 50.92 97.01 49.96 97.01 48.52C97.01 46.36 97.69 44.04 99.05 41.56C100.01 39.88 101.05 38.64 102.17 37.84C103.37 36.96 104.41 36.52 105.29 36.52C106.97 36.52 107.81 37.52 107.81 39.52C107.81 40.8 107.33 42.4 106.37 44.32C105.97 45.28 105.17 46.52 103.97 48.04C102.85 49.48 101.73 50.52 100.61 51.16C102.29 50.6 104.41 50.24 106.97 50.08C109.61 49.84 111.81 49.72 113.57 49.72C114.61 49.72 115.89 50.04 117.41 50.68C118.93 51.24 119.69 52.28 119.69 53.8C119.69 54.84 119.21 55.96 118.25 57.16C118.01 57.48 117.37 58.24 116.33 59.44C115.29 60.64 114.13 62.08 112.85 63.76C111.65 65.44 110.53 67.12 109.49 68.8C108.45 70.32 107.61 71.72 106.97 73C106.41 74.28 106.13 75.36 106.13 76.24C106.13 77.52 106.85 78.16 108.29 78.16C109.97 78.16 112.21 77.36 115.01 75.76C117.81 74.16 120.81 72.12 124.01 69.64C127.29 67.08 130.29 64.44 133.01 61.72C133.33 61.4 133.61 61.24 133.85 61.24C134.17 61.24 134.33 61.44 134.33 61.84C134.33 62.32 134.13 62.76 133.73 63.16C130.93 65.96 127.81 68.84 124.37 71.8C121.01 74.68 117.49 77.12 113.81 79.12C110.21 81.12 106.69 82.12 103.25 82.12Z" fill="black"/>
<path d="M155.369 45.28C154.249 45.28 153.409 44.92 152.849 44.2C152.289 43.48 152.009 42.72 152.009 41.92C152.009 40.32 152.769 38.76 154.289 37.24C155.809 35.64 157.409 34.84 159.089 34.84C160.209 34.84 161.049 35.2 161.609 35.92C162.169 36.64 162.449 37.4 162.449 38.2C162.449 39.88 161.689 41.48 160.169 43C158.729 44.52 157.129 45.28 155.369 45.28ZM137.009 82.12C133.729 82.12 131.489 81.44 130.289 80.08C129.169 78.64 128.609 77.04 128.609 75.28C128.609 73.84 128.849 72.48 129.329 71.2C129.809 69.84 130.209 68.88 130.529 68.32C131.009 67.52 131.649 66.6 132.449 65.56C133.329 64.52 134.289 63.4 135.329 62.2C133.729 63.56 132.209 64.88 130.769 66.16C129.409 67.44 128.289 68.4 127.409 69.04C127.169 69.28 126.929 69.4 126.689 69.4C126.369 69.4 126.209 69.2 126.209 68.8C126.209 68.16 126.649 67.52 127.529 66.88C129.609 65.12 131.609 63.2 133.529 61.12C135.529 59.04 137.409 57.12 139.169 55.36C140.929 53.52 142.489 52.24 143.849 51.52C145.289 50.72 146.449 50.2 147.329 49.96C148.209 49.72 148.929 49.6 149.489 49.6C150.369 49.6 151.009 49.76 151.409 50.08C151.809 50.32 151.889 50.6 151.649 50.92C150.289 52.28 148.929 54.04 147.569 56.2C146.289 58.28 145.089 60.48 143.969 62.8C142.849 65.12 141.929 67.32 141.209 69.4C140.569 71.48 140.249 73.24 140.249 74.68C140.249 76.68 141.049 77.68 142.649 77.68C144.169 77.68 146.129 77 148.529 75.64C151.009 74.2 153.569 72.4 156.209 70.24C158.929 68.08 161.449 65.96 163.769 63.88C164.089 63.56 164.369 63.4 164.609 63.4C165.009 63.4 165.209 63.6 165.209 64C165.289 64.4 165.209 64.68 164.969 64.84C162.329 67.32 159.329 69.92 155.969 72.64C152.689 75.28 149.369 77.52 146.009 79.36C142.729 81.2 139.729 82.12 137.009 82.12Z" fill="black"/>
<path d="M166.096 91.48C164.336 89.88 163.136 88.4 162.496 87.04C161.936 85.76 161.656 83.96 161.656 81.64C161.656 79.24 161.976 76.56 162.616 73.6C163.336 70.64 164.336 67.56 165.616 64.36C164.816 65.16 163.976 65.96 163.096 66.76C162.216 67.56 161.336 68.28 160.456 68.92C160.216 69.16 159.976 69.28 159.736 69.28C159.496 69.28 159.376 69.16 159.376 68.92C159.376 68.36 159.856 67.6 160.816 66.64C162.096 65.52 163.296 64.28 164.416 62.92C165.536 61.56 166.776 60.04 168.136 58.36C172.136 49.48 176.616 41.48 181.576 34.36C186.536 27.24 192.536 20.4 199.576 13.84C203.176 10.56 206.536 8.2 209.656 6.75999C212.856 5.31999 215.656 4.59999 218.056 4.59999C220.456 4.59999 222.336 5.24 223.696 6.52C225.056 7.8 225.736 9.48 225.736 11.56C225.736 13.56 225.056 15.84 223.696 18.4C222.416 20.96 220.296 23.64 217.336 26.44C215.256 28.44 212.776 30.52 209.896 32.68C207.016 34.76 204.056 36.72 201.016 38.56C197.976 40.4 195.136 41.92 192.496 43.12C192.336 43.2 192.176 43.28 192.016 43.36C191.856 43.36 191.696 43.36 191.536 43.36C190.976 43.36 190.696 43.16 190.696 42.76C190.696 42.28 191.136 41.88 192.016 41.56C194.496 40.44 197.216 38.92 200.176 37C203.216 35.08 206.136 33 208.936 30.76C211.736 28.52 214.096 26.4 216.016 24.4C218.416 21.84 220.136 19.68 221.176 17.92C222.296 16.08 222.856 14.68 222.856 13.72C222.856 12.52 222.176 11.92 220.816 11.92C219.376 11.92 217.296 12.68 214.576 14.2C211.936 15.64 208.896 17.88 205.456 20.92C201.216 24.68 197.016 29 192.856 33.88C188.776 38.76 185.016 43.6 181.576 48.4C178.216 53.12 175.416 57.32 173.176 61C176.296 56.84 179.336 53.6 182.296 51.28C185.256 48.96 187.976 47.28 190.456 46.24C192.536 45.44 194.496 45.04 196.336 45.04C198.416 45.04 200.096 45.56 201.376 46.6C202.656 47.64 203.296 48.96 203.296 50.56C203.296 52.16 202.736 53.96 201.616 55.96C200.576 57.96 198.776 59.92 196.216 61.84C194.216 63.28 191.536 64.56 188.176 65.68C184.896 66.72 181.816 67.24 178.936 67.24C177.256 67.24 175.816 67 174.616 66.52C176.216 68.52 178.216 70.48 180.616 72.4C183.016 74.24 185.456 75.76 187.936 76.96C190.496 78.08 192.736 78.64 194.656 78.64C196.016 78.64 197.256 78.28 198.376 77.56C199.496 76.84 200.056 75.96 200.056 74.92C200.056 74.76 200.136 74.68 200.296 74.68C200.536 74.68 200.656 74.76 200.656 74.92C200.656 76.44 200.016 77.68 198.736 78.64C197.536 79.6 196.056 80.28 194.296 80.68C193.496 80.84 192.656 81 191.776 81.16C190.976 81.24 190.136 81.28 189.256 81.28C185.976 81.28 182.896 80.72 180.016 79.6C177.216 78.4 174.776 76.96 172.696 75.28C170.696 73.52 169.256 71.84 168.376 70.24C167.336 72.8 166.536 75.36 165.976 77.92C165.496 80.4 165.256 82.68 165.256 84.76C165.256 87.56 165.736 89.56 166.696 90.76C166.936 91.08 166.936 91.28 166.696 91.36C166.456 91.52 166.256 91.56 166.096 91.48ZM176.656 65.92C178.656 65.92 181.016 65.44 183.736 64.48C186.536 63.52 188.816 62.36 190.576 61C192.016 59.88 193.056 58.68 193.696 57.4C194.416 56.12 194.776 54.96 194.776 53.92C194.776 52.8 194.416 51.88 193.696 51.16C193.056 50.36 192.096 49.96 190.816 49.96C189.536 49.96 188.016 50.4 186.256 51.28C184.496 52.08 182.456 53.52 180.136 55.6C178.856 56.8 177.536 58.04 176.176 59.32C174.896 60.6 173.696 61.92 172.576 63.28C172.736 63.68 172.936 64.12 173.176 64.6C173.416 65 173.696 65.28 174.016 65.44C174.336 65.6 174.736 65.72 175.216 65.8C175.696 65.88 176.176 65.92 176.656 65.92Z" fill="black"/>
<path d="M262.39 93.28C262.07 93.28 261.79 93.12 261.55 92.8C261.39 92.56 261.43 92.24 261.67 91.84C262.23 90.96 262.99 89.64 263.95 87.88C264.99 86.12 266.23 84.12 267.67 81.88C266.31 82.52 264.79 83.12 263.11 83.68C261.43 84.32 259.99 84.76 258.79 85C257.59 85.32 257.03 85.32 257.11 85C257.51 83.64 258.23 81.04 259.27 77.2C260.31 73.28 261.47 68.6 262.75 63.16C264.03 57.72 265.19 51.96 266.23 45.88C267.27 39.72 267.95 33.76 268.27 28C268.35 27.36 268.39 26.76 268.39 26.2C268.39 25.56 268.39 24.96 268.39 24.4C268.39 18.48 267.51 13.88 265.75 10.6C263.99 7.32 261.75 5.68 259.03 5.68C256.55 5.68 253.87 7.12 250.99 10C248.19 12.8 245.43 17.24 242.71 23.32C241.11 27 239.87 30.88 238.99 34.96C238.19 39.04 237.95 43 238.27 46.84V47.08C238.27 47.64 238.15 48.04 237.91 48.28C237.67 48.44 237.43 48.24 237.19 47.68C236.71 46.64 236.35 45.32 236.11 43.72C235.87 42.12 235.75 40.4 235.75 38.56C235.75 35.28 236.11 31.84 236.83 28.24C237.55 24.64 238.55 21.56 239.83 19C241.51 15.88 243.63 13.08 246.19 10.6C248.75 8.12 251.51 6.15999 254.47 4.71999C257.43 3.27999 260.35 2.55999 263.23 2.55999C266.35 2.55999 269.23 3.59999 271.87 5.68C274.59 7.76 276.59 11.28 277.87 16.24C278.51 18.56 278.99 21.04 279.31 23.68C279.63 26.24 279.79 29.04 279.79 32.08C279.79 37.52 279.23 43.68 278.11 50.56C276.99 57.36 275.27 65.04 272.95 73.6C275.83 69.28 279.03 64.6 282.55 59.56C286.07 54.52 289.83 49.44 293.83 44.32C297.83 39.12 301.91 34.16 306.07 29.44C310.23 24.72 314.39 20.44 318.55 16.6C322.71 12.76 326.71 9.72 330.55 7.48C332.63 6.28 334.95 5.2 337.51 4.24C340.15 3.28 342.55 2.8 344.71 2.8C347.11 2.8 348.83 3.48 349.87 4.84C350.03 5.16 350.11 5.35999 350.11 5.44C350.11 5.76 349.91 5.92 349.51 5.92C349.11 5.92 348.71 5.88 348.31 5.79999C344.71 5.56 340.63 6.72 336.07 9.28C331.51 11.84 326.71 15.36 321.67 19.84C316.71 24.32 311.67 29.4 306.55 35.08C301.51 40.68 296.63 46.44 291.91 52.36C287.27 58.28 282.99 63.96 279.07 69.4C275.15 74.76 271.83 79.48 269.11 83.56C266.47 87.64 264.63 90.64 263.59 92.56C263.35 93.04 262.95 93.28 262.39 93.28Z" fill="black"/>
<path d="M298.315 82C297.275 82 296.475 81.72 295.915 81.16C295.035 80.44 294.595 79.44 294.595 78.16C294.595 76.32 295.315 74.64 296.755 73.12C298.435 71.2 300.355 70.24 302.515 70.24C303.395 70.24 304.195 70.48 304.915 70.96C305.795 71.68 306.235 72.68 306.235 73.96C306.235 75.72 305.515 77.4 304.075 79C302.315 81 300.395 82 298.315 82Z" fill="black"/>
<path d="M399.805 91.96C397.965 91.96 396.645 91.32 395.845 90.04C395.125 88.84 394.765 87.48 394.765 85.96C394.765 83.96 395.245 82.08 396.205 80.32C398.285 76.48 400.885 72.48 404.005 68.32C407.125 64.08 410.365 59.88 413.725 55.72C417.165 51.48 420.285 47.48 423.085 43.72C421.165 43.48 419.125 43.36 416.965 43.36C411.525 43.36 405.605 44.04 399.205 45.4C397.205 45.8 395.325 46.28 393.565 46.84C391.885 47.32 390.365 47.56 389.005 47.56C388.125 47.56 387.405 47.4 386.845 47.08C386.605 46.92 386.285 46.64 385.885 46.24C385.565 45.76 385.405 45.2 385.405 44.56C385.405 43.68 386.125 42.68 387.565 41.56C389.005 40.36 391.845 39.36 396.085 38.56C398.885 38.08 402.245 37.84 406.165 37.84C409.445 37.84 412.805 38.04 416.245 38.44C419.765 38.84 422.885 39.48 425.605 40.36C428.645 36.12 430.845 32.44 432.205 29.32C433.565 26.12 434.245 23.4 434.245 21.16C434.245 17.56 432.725 15.04 429.685 13.6C426.725 12.16 422.925 11.44 418.285 11.44C415.325 11.44 412.125 11.68 408.685 12.16C405.325 12.56 401.885 13.16 398.365 13.96C397.645 14.12 396.045 14.52 393.565 15.16C391.085 15.72 388.125 16.48 384.685 17.44C381.325 18.32 377.845 19.36 374.245 20.56C370.645 21.76 367.245 23.04 364.045 24.4C360.925 25.76 358.365 27.2 356.365 28.72C354.445 30.16 353.485 31.64 353.485 33.16C353.485 34.44 354.365 35.68 356.125 36.88C356.285 37.04 356.365 37.16 356.365 37.24C356.365 37.4 356.165 37.48 355.765 37.48C355.285 37.48 354.845 37.36 354.445 37.12C352.125 35.52 350.965 33.2 350.965 30.16C350.965 27.92 351.725 25.56 353.245 23.08C354.765 20.6 357.125 18.48 360.325 16.72C364.405 14.4 368.965 12.32 374.005 10.48C379.045 8.56 384.245 6.96 389.605 5.68C395.045 4.31999 400.365 3.31999 405.565 2.68C410.765 1.96 415.605 1.6 420.085 1.6C426.005 1.6 430.645 2.2 434.005 3.4C437.445 4.59999 439.885 6.23999 441.325 8.32C442.765 10.4 443.485 12.72 443.485 15.28C443.485 18.72 442.445 22.36 440.365 26.2C438.365 30.04 436.125 33.48 433.645 36.52C433.005 37.32 432.325 38.16 431.605 39.04C430.885 39.92 430.085 40.84 429.205 41.8C430.405 42.44 431.485 43.24 432.445 44.2C433.005 44.92 433.285 45.52 433.285 46C433.285 46.56 432.965 46.84 432.325 46.84C431.845 46.84 431.285 46.64 430.645 46.24C430.085 45.84 429.485 45.52 428.845 45.28C428.285 45.04 427.645 44.8 426.925 44.56C424.685 47.28 422.285 50.16 419.725 53.2C417.165 56.16 414.725 59.08 412.405 61.96C410.085 64.84 408.005 67.52 406.165 70C405.125 71.44 403.965 73.04 402.685 74.8C401.405 76.56 400.285 78.4 399.325 80.32C398.445 82.24 398.005 84.2 398.005 86.2C398.005 87.32 398.205 88.32 398.605 89.2C399.005 90.08 399.805 90.52 401.005 90.52C401.565 90.52 402.205 90.4 402.925 90.16L403.405 90.04C403.725 90.04 403.885 90.16 403.885 90.4C403.885 90.8 403.565 91.12 402.925 91.36C401.565 91.76 400.525 91.96 399.805 91.96Z" fill="black"/>
<path d="M440.601 83.2C437.081 83.2 434.121 82.36 431.721 80.68C429.401 78.92 428.241 76.4 428.241 73.12C428.241 69.6 429.081 66.32 430.761 63.28C432.441 60.24 434.681 57.6 437.481 55.36C440.281 53.04 443.321 51.24 446.601 49.96C449.961 48.68 453.281 48.04 456.561 48.04C459.841 48.04 462.281 48.64 463.881 49.84C465.481 50.96 466.281 52.36 466.281 54.04C466.281 55.64 465.521 57.36 464.001 59.2C462.561 60.96 460.441 62.52 457.641 63.88C455.881 64.68 453.841 65.4 451.521 66.04C449.281 66.6 447.321 66.88 445.641 66.88C444.361 66.88 443.721 66.68 443.721 66.28C443.721 65.96 444.281 65.8 445.401 65.8C446.441 65.8 448.041 65.52 450.201 64.96C452.441 64.32 454.601 63.48 456.681 62.44C459.001 61.16 460.641 59.88 461.601 58.6C462.561 57.32 463.041 56.16 463.041 55.12C463.041 54.16 462.641 53.36 461.841 52.72C461.121 52.08 460.081 51.76 458.721 51.76C457.441 51.76 456.001 52.12 454.401 52.84C452.081 53.88 449.681 55.6 447.201 58C444.801 60.32 442.801 62.88 441.201 65.68C439.601 68.48 438.801 71.16 438.801 73.72C438.801 75.48 439.281 76.96 440.241 78.16C441.281 79.36 442.801 79.96 444.801 79.96C446.881 79.96 449.281 79.32 452.001 78.04C454.721 76.68 457.481 75.04 460.281 73.12C463.081 71.12 465.681 69.12 468.081 67.12C470.481 65.12 472.401 63.44 473.841 62.08C474.321 61.6 474.681 61.36 474.921 61.36C475.161 61.36 475.281 61.56 475.281 61.96C475.281 62.52 475.041 63 474.561 63.4C471.521 66.2 468.201 69.12 464.601 72.16C461.081 75.2 457.281 77.8 453.201 79.96C449.201 82.04 445.001 83.12 440.601 83.2Z" fill="black"/>
<path d="M487.742 82.12C484.302 82.12 481.982 81.48 480.782 80.2C479.582 78.84 478.982 77.36 478.982 75.76C478.982 73.68 479.782 71.48 481.382 69.16C482.342 67.8 483.422 66.28 484.622 64.6C485.822 62.84 486.942 61.2 487.982 59.68C489.022 58.16 489.742 57.08 490.142 56.44C490.702 55.64 491.022 55.12 491.102 54.88C491.262 54.56 491.342 54.24 491.342 53.92C491.342 53.44 491.022 53 490.382 52.6C489.822 52.12 488.862 51.88 487.502 51.88C487.102 51.88 486.742 51.92 486.422 52C486.182 52 485.902 52 485.582 52C484.942 52 484.582 51.96 484.502 51.88L484.142 52.36C481.902 55.32 479.502 58.24 476.942 61.12C474.382 63.92 471.582 66.52 468.542 68.92C468.222 69.16 467.982 69.28 467.822 69.28C467.502 69.28 467.342 69.12 467.342 68.8C467.342 68.16 467.822 67.44 468.782 66.64C471.262 64.56 473.702 62.24 476.102 59.68C478.502 57.04 480.662 54.28 482.582 51.4C481.862 50.92 481.502 49.96 481.502 48.52C481.502 46.36 482.182 44.04 483.542 41.56C484.502 39.88 485.542 38.64 486.662 37.84C487.862 36.96 488.902 36.52 489.782 36.52C491.462 36.52 492.302 37.52 492.302 39.52C492.302 40.8 491.822 42.4 490.862 44.32C490.462 45.28 489.662 46.52 488.462 48.04C487.342 49.48 486.222 50.52 485.102 51.16C486.782 50.6 488.902 50.24 491.462 50.08C494.102 49.84 496.302 49.72 498.062 49.72C499.102 49.72 500.382 50.04 501.902 50.68C503.422 51.24 504.182 52.28 504.182 53.8C504.182 54.84 503.702 55.96 502.742 57.16C502.502 57.48 501.862 58.24 500.822 59.44C499.782 60.64 498.622 62.08 497.342 63.76C496.142 65.44 495.022 67.12 493.982 68.8C492.942 70.32 492.102 71.72 491.462 73C490.902 74.28 490.622 75.36 490.622 76.24C490.622 77.52 491.342 78.16 492.782 78.16C494.462 78.16 496.702 77.36 499.502 75.76C502.302 74.16 505.302 72.12 508.502 69.64C511.782 67.08 514.782 64.44 517.502 61.72C517.822 61.4 518.102 61.24 518.342 61.24C518.662 61.24 518.822 61.44 518.822 61.84C518.822 62.32 518.622 62.76 518.222 63.16C515.422 65.96 512.302 68.84 508.862 71.8C505.502 74.68 501.982 77.12 498.302 79.12C494.702 81.12 491.182 82.12 487.742 82.12Z" fill="black"/>
<path d="M512.502 82.6C511.702 82.6 510.742 82.4 509.622 82C508.502 81.68 507.382 81.04 506.262 80.08C507.142 78.88 508.422 77.28 510.102 75.28C511.702 73.2 513.422 70.92 515.262 68.44C517.102 65.96 518.822 63.48 520.422 61C519.142 62.28 517.742 63.64 516.222 65.08C514.702 66.52 513.182 67.84 511.662 69.04C511.342 69.36 510.982 69.52 510.582 69.52C510.262 69.52 510.102 69.36 510.102 69.04C510.102 68.64 510.422 68.16 511.062 67.6C513.302 65.6 515.782 63.32 518.502 60.76C521.302 58.12 523.342 55.44 524.622 52.72C525.022 51.76 525.222 50.88 525.222 50.08C525.222 49.04 525.022 48.4 524.622 48.16C524.302 47.92 524.142 47.6 524.142 47.2C524.142 46.48 524.502 46.12 525.222 46.12C525.622 46.12 525.942 46.2 526.182 46.36C527.062 46.76 527.902 47.52 528.702 48.64C529.502 49.76 529.902 51.44 529.902 53.68C529.902 54.96 529.742 56.44 529.422 58.12C529.102 59.72 528.542 61.56 527.742 63.64C528.942 62.04 530.142 60.48 531.342 58.96C532.622 57.44 533.782 56.08 534.822 54.88C536.982 52.4 539.142 50.64 541.302 49.6C543.542 48.48 545.542 47.92 547.302 47.92C549.382 47.92 551.062 48.52 552.342 49.72C553.622 50.92 554.262 52.48 554.262 54.4C554.262 55.92 553.862 57.48 553.062 59.08C552.822 59.72 552.262 60.72 551.382 62.08C550.502 63.36 549.542 64.76 548.502 66.28C547.462 67.8 546.502 69.16 545.622 70.36C544.582 71.64 543.862 72.76 543.462 73.72C543.062 74.6 542.862 75.32 542.862 75.88C542.862 76.68 543.302 77.08 544.182 77.08C545.302 77.08 546.862 76.48 548.862 75.28C550.062 74.56 551.422 73.6 552.942 72.4C554.542 71.12 556.102 69.84 557.622 68.56C559.222 67.2 560.502 66.08 561.462 65.2C561.782 64.88 562.062 64.72 562.302 64.72C562.622 64.72 562.782 64.92 562.782 65.32C562.782 65.8 562.582 66.24 562.182 66.64C559.782 68.88 556.982 71.32 553.782 73.96C550.662 76.6 547.582 78.64 544.542 80.08C542.062 81.28 539.782 81.88 537.702 81.88C535.942 81.88 534.542 81.44 533.502 80.56C532.462 79.6 531.942 78.24 531.942 76.48C531.942 75.2 532.262 73.68 532.902 71.92C533.702 69.76 534.822 67.6 536.262 65.44C537.782 63.28 539.342 61.24 540.942 59.32C542.622 57.32 544.062 55.64 545.262 54.28C546.302 53.16 546.822 52.2 546.822 51.4C546.822 50.68 546.342 50.32 545.382 50.32C544.422 50.32 542.982 50.88 541.062 52C539.222 53.04 537.142 54.76 534.822 57.16C531.542 60.6 528.662 64.32 526.182 68.32C523.702 72.32 520.862 76.08 517.662 79.6C515.902 81.6 514.182 82.6 512.502 82.6Z" fill="black"/>
<path d="M567.397 82.12C564.917 82.12 562.997 81.36 561.637 79.84C560.277 78.24 559.597 76.2 559.597 73.72C559.597 71.4 560.197 68.84 561.397 66.04C562.677 63.24 564.677 60.4 567.397 57.52C570.197 54.48 573.677 52.04 577.837 50.2C581.997 48.28 585.957 47.32 589.717 47.32C592.757 47.32 595.357 48 597.517 49.36C599.677 50.64 601.117 52.28 601.837 54.28C602.717 54.28 603.797 54.52 605.077 55C606.437 55.48 607.117 56.36 607.117 57.64C607.117 58.52 606.677 59.52 605.797 60.64C605.237 61.44 604.237 62.64 602.797 64.24C601.437 65.84 600.157 67.56 598.957 69.4C597.997 70.84 597.237 72.2 596.677 73.48C596.117 74.68 595.837 75.72 595.837 76.6C595.837 77.8 596.437 78.4 597.637 78.4C598.997 78.4 601.037 77.64 603.757 76.12C606.717 74.44 609.557 72.52 612.277 70.36C614.997 68.2 617.117 66.48 618.637 65.2C619.037 64.88 619.317 64.72 619.477 64.72C619.797 64.72 619.957 64.92 619.957 65.32C619.957 65.8 619.757 66.24 619.357 66.64C618.637 67.28 617.237 68.48 615.157 70.24C613.077 72 610.677 73.84 607.957 75.76C605.317 77.68 602.717 79.24 600.157 80.44C598.877 81 597.677 81.44 596.557 81.76C595.517 82 594.557 82.12 593.677 82.12C591.517 82.12 589.877 81.52 588.757 80.32C587.637 79.04 587.077 77.4 587.077 75.4C587.077 74.6 587.197 73.76 587.437 72.88C587.677 72 587.957 71.12 588.277 70.24L589.117 68.2C587.037 70.76 584.957 72.92 582.877 74.68C580.797 76.36 578.717 77.84 576.637 79.12C574.877 80.16 573.197 80.92 571.597 81.4C570.077 81.88 568.677 82.12 567.397 82.12ZM571.117 79C572.557 79 574.637 78.16 577.357 76.48C580.077 74.72 583.237 72.04 586.837 68.44C587.317 67.96 588.197 67.12 589.477 65.92C590.837 64.64 592.277 63.24 593.797 61.72C595.317 60.12 596.597 58.56 597.637 57.04C598.757 55.44 599.317 54.12 599.317 53.08C599.317 51.56 597.997 50.8 595.357 50.8C593.037 50.8 590.237 51.72 586.957 53.56C583.757 55.32 580.677 57.96 577.717 61.48C574.677 65.08 572.437 68.2 570.997 70.84C569.637 73.4 568.957 75.36 568.957 76.72C568.957 78.24 569.677 79 571.117 79Z" fill="black"/>
<path d="M617.267 82.6C616.467 82.6 615.507 82.4 614.387 82C613.267 81.68 612.147 81.04 611.027 80.08C611.907 78.88 613.187 77.28 614.867 75.28C616.467 73.2 618.187 70.92 620.027 68.44C621.867 65.96 623.587 63.48 625.187 61C623.907 62.28 622.507 63.64 620.987 65.08C619.467 66.52 617.947 67.84 616.427 69.04C616.107 69.36 615.747 69.52 615.347 69.52C615.027 69.52 614.867 69.36 614.867 69.04C614.867 68.64 615.187 68.16 615.827 67.6C618.067 65.6 620.547 63.32 623.267 60.76C626.067 58.12 628.107 55.44 629.387 52.72C629.787 51.76 629.987 50.88 629.987 50.08C629.987 49.04 629.787 48.4 629.387 48.16C629.067 47.92 628.907 47.6 628.907 47.2C628.907 46.48 629.267 46.12 629.987 46.12C630.387 46.12 630.707 46.2 630.947 46.36C631.827 46.76 632.667 47.52 633.467 48.64C634.267 49.76 634.667 51.44 634.667 53.68C634.667 54.96 634.507 56.44 634.187 58.12C633.867 59.72 633.307 61.56 632.507 63.64C633.707 62.04 634.907 60.48 636.107 58.96C637.387 57.44 638.547 56.08 639.587 54.88C641.747 52.4 643.907 50.64 646.067 49.6C648.307 48.48 650.307 47.92 652.067 47.92C654.147 47.92 655.827 48.52 657.107 49.72C658.387 50.92 659.027 52.48 659.027 54.4C659.027 55.92 658.627 57.48 657.827 59.08C657.587 59.72 657.027 60.72 656.147 62.08C655.267 63.36 654.307 64.76 653.267 66.28C652.227 67.8 651.267 69.16 650.387 70.36C649.347 71.64 648.627 72.76 648.227 73.72C647.827 74.6 647.627 75.32 647.627 75.88C647.627 76.68 648.067 77.08 648.947 77.08C650.067 77.08 651.627 76.48 653.627 75.28C654.827 74.56 656.187 73.6 657.707 72.4C659.307 71.12 660.867 69.84 662.387 68.56C663.987 67.2 665.267 66.08 666.227 65.2C666.547 64.88 666.827 64.72 667.067 64.72C667.387 64.72 667.547 64.92 667.547 65.32C667.547 65.8 667.347 66.24 666.947 66.64C664.547 68.88 661.747 71.32 658.547 73.96C655.427 76.6 652.347 78.64 649.307 80.08C646.827 81.28 644.547 81.88 642.467 81.88C640.707 81.88 639.307 81.44 638.267 80.56C637.227 79.6 636.707 78.24 636.707 76.48C636.707 75.2 637.027 73.68 637.667 71.92C638.467 69.76 639.587 67.6 641.027 65.44C642.547 63.28 644.107 61.24 645.707 59.32C647.387 57.32 648.827 55.64 650.027 54.28C651.067 53.16 651.587 52.2 651.587 51.4C651.587 50.68 651.107 50.32 650.147 50.32C649.187 50.32 647.747 50.88 645.827 52C643.987 53.04 641.907 54.76 639.587 57.16C636.307 60.6 633.427 64.32 630.947 68.32C628.467 72.32 625.627 76.08 622.427 79.6C620.667 81.6 618.947 82.6 617.267 82.6Z" fill="black"/>
<path d="M699.403 92.56C698.123 91.44 697.163 90 696.523 88.24C695.963 86.56 695.683 84.64 695.683 82.48C695.683 80.48 695.883 78.36 696.283 76.12C696.763 73.88 697.363 71.52 698.083 69.04C696.563 70.96 694.843 72.92 692.923 74.92C691.083 76.92 689.323 78.64 687.643 80.08C684.283 82.8 680.643 84.16 676.723 84.16C673.763 84.16 671.243 83.24 669.163 81.4C667.083 79.48 666.043 76.52 666.043 72.52C666.043 71.48 666.123 70.48 666.283 69.52C666.523 68.56 666.803 67.6 667.123 66.64C666.643 67.04 666.163 67.44 665.683 67.84C665.283 68.24 664.883 68.6 664.483 68.92C664.163 69.16 663.843 69.28 663.523 69.28C663.123 69.28 662.923 69.08 662.923 68.68C662.923 68.2 663.323 67.64 664.123 67C665.163 66.12 666.323 64.92 667.603 63.4C668.963 61.88 670.443 60.24 672.043 58.48C674.843 55.36 678.243 52.84 682.243 50.92C686.323 49 690.323 48.04 694.243 48.04C697.603 48.04 700.043 48.64 701.563 49.84C703.163 51.04 703.963 52.48 703.963 54.16C705.963 49.92 708.043 45.88 710.203 42.04C712.443 38.12 714.523 34.68 716.443 31.72C718.443 28.76 720.083 26.56 721.363 25.12C722.243 24.08 723.323 23.32 724.603 22.84C725.963 22.36 727.323 22.12 728.683 22.12C730.043 22.12 731.363 22.32 732.643 22.72C733.923 23.12 735.043 23.76 736.003 24.64C735.203 25.12 733.923 26.28 732.163 28.12C730.483 29.88 728.523 32.08 726.283 34.72C724.123 37.36 721.843 40.2 719.443 43.24C717.123 46.28 714.923 49.32 712.843 52.36C710.363 55.96 708.003 59.84 705.763 64C703.603 68.16 701.843 72.2 700.483 76.12C699.123 79.96 698.443 83.36 698.443 86.32C698.443 88.72 698.963 90.56 700.003 91.84C700.243 92.16 700.243 92.36 700.003 92.44C699.763 92.6 699.563 92.64 699.403 92.56ZM680.443 80.08C681.883 80.08 683.803 79.36 686.203 77.92C688.603 76.4 691.563 73.84 695.083 70.24C696.203 69.12 697.083 68.16 697.723 67.36C698.443 66.48 699.043 65.64 699.523 64.84C699.923 63.72 700.323 62.64 700.723 61.6C701.123 60.56 701.563 59.52 702.043 58.48C701.563 58.8 701.203 58.96 700.963 58.96C700.323 58.96 700.003 58.6 700.003 57.88C700.003 57.56 700.123 57.16 700.363 56.68C701.163 55.32 701.563 54.12 701.563 53.08C701.563 51.4 700.603 50.56 698.683 50.56C697.643 50.56 696.243 50.88 694.483 51.52C692.483 52.32 690.403 53.56 688.243 55.24C686.163 56.84 684.203 58.76 682.363 61C680.603 63.16 679.163 65.4 678.043 67.72C677.003 70.04 676.483 72.24 676.483 74.32C676.483 75.84 676.763 77.2 677.323 78.4C677.963 79.52 679.003 80.08 680.443 80.08Z" fill="black"/>
<path d="M725.953 83.2C722.433 83.2 719.473 82.36 717.073 80.68C714.753 78.92 713.593 76.4 713.593 73.12C713.593 69.6 714.433 66.32 716.113 63.28C717.793 60.24 720.033 57.6 722.833 55.36C725.633 53.04 728.673 51.24 731.953 49.96C735.313 48.68 738.633 48.04 741.913 48.04C745.193 48.04 747.633 48.64 749.233 49.84C750.833 50.96 751.633 52.36 751.633 54.04C751.633 55.64 750.873 57.36 749.353 59.2C747.913 60.96 745.793 62.52 742.993 63.88C741.233 64.68 739.193 65.4 736.873 66.04C734.633 66.6 732.673 66.88 730.993 66.88C729.713 66.88 729.073 66.68 729.073 66.28C729.073 65.96 729.633 65.8 730.753 65.8C731.793 65.8 733.393 65.52 735.553 64.96C737.793 64.32 739.953 63.48 742.033 62.44C744.353 61.16 745.993 59.88 746.953 58.6C747.913 57.32 748.393 56.16 748.393 55.12C748.393 54.16 747.993 53.36 747.193 52.72C746.473 52.08 745.433 51.76 744.073 51.76C742.793 51.76 741.353 52.12 739.753 52.84C737.433 53.88 735.033 55.6 732.553 58C730.153 60.32 728.153 62.88 726.553 65.68C724.953 68.48 724.153 71.16 724.153 73.72C724.153 75.48 724.633 76.96 725.593 78.16C726.633 79.36 728.153 79.96 730.153 79.96C732.233 79.96 734.633 79.32 737.353 78.04C740.073 76.68 742.833 75.04 745.633 73.12C748.433 71.12 751.033 69.12 753.433 67.12C755.833 65.12 757.753 63.44 759.193 62.08C759.673 61.6 760.033 61.36 760.273 61.36C760.513 61.36 760.633 61.56 760.633 61.96C760.633 62.52 760.393 63 759.913 63.4C756.873 66.2 753.553 69.12 749.953 72.16C746.433 75.2 742.633 77.8 738.553 79.96C734.553 82.04 730.353 83.12 725.953 83.2Z" fill="black"/>
<path d="M761.934 83.32C758.734 83.32 755.934 82.72 753.534 81.52C751.054 80.24 749.254 77.92 748.134 74.56C748.054 74.24 748.174 74.04 748.494 73.96C748.734 73.88 748.894 74.04 748.974 74.44C749.774 76.2 750.814 77.44 752.094 78.16C753.374 78.88 754.774 79.24 756.294 79.24C758.854 79.24 761.094 78.48 763.014 76.96C765.014 75.44 766.774 73.52 768.294 71.2C769.894 68.88 771.294 66.52 772.494 64.12C773.774 61.64 774.974 59.52 776.094 57.76C777.854 54.8 779.934 52.12 782.334 49.72C784.814 47.32 787.054 45.84 789.054 45.28C788.574 45.04 787.974 44.92 787.254 44.92C785.254 44.92 783.054 45.52 780.654 46.72C778.254 47.92 775.814 49.48 773.334 51.4C770.934 53.32 768.574 55.36 766.254 57.52C764.014 59.6 761.934 61.56 760.014 63.4C758.174 65.16 756.694 66.56 755.574 67.6C754.934 68.16 754.454 68.44 754.134 68.44C753.814 68.44 753.654 68.28 753.654 67.96C753.654 67.48 753.854 67.04 754.254 66.64C756.654 64.56 759.134 62.24 761.694 59.68C764.254 57.04 766.854 54.52 769.494 52.12C772.134 49.64 774.814 47.6 777.534 46C780.254 44.4 783.014 43.6 785.814 43.6C786.134 43.6 786.414 43.6 786.654 43.6C786.974 43.6 787.294 43.64 787.614 43.72C788.494 43.8 789.294 44.04 790.014 44.44C790.814 44.84 791.054 45.12 790.734 45.28C788.894 46.08 787.454 47.68 786.414 50.08C785.374 52.48 784.414 55.28 783.534 58.48C782.654 61.68 781.574 64.92 780.294 68.2C779.094 71.48 777.334 74.4 775.014 76.96C776.134 76.56 777.894 75.64 780.294 74.2C782.694 72.76 785.334 71 788.214 68.92C791.094 66.76 793.774 64.4 796.254 61.84C796.574 61.52 796.894 61.36 797.214 61.36C797.614 61.36 797.814 61.56 797.814 61.96C797.814 62.28 797.654 62.6 797.334 62.92C795.174 65 792.774 67.24 790.134 69.64C787.494 71.96 784.614 74.16 781.494 76.24C778.454 78.32 775.294 80.04 772.014 81.4C768.734 82.68 765.374 83.32 761.934 83.32Z" fill="black"/>
</svg>
