<svg width="798" height="93" viewBox="0 0 798 93" fill="none" xmlns="http://www.w3.org/2000/svg">
<path d="M31.04 86.88C24.64 86.88 19.2 85.84 14.72 83.76C10.24 81.76 6.80004 78.96 4.40004 75.36C2.08004 71.76 0.920044 67.64 0.920044 63C0.920044 58.52 2.08004 53.76 4.40004 48.72C6.72004 43.6 10.32 38.4 15.2 33.12C18.8 29.2 22.84 25.56 27.32 22.2C31.8 18.76 36.36 15.64 41 12.84C45.72 10.04 50.32 7.68 54.8 5.76C59.36 3.84 63.52 2.44 67.28 1.56C69.36 1.08 71.44 0.720003 73.5201 0.480001C75.68 0.160001 77.76 0 79.76 0C83.2 0 86.3601 0.44 89.2401 1.32C92.1201 2.2 94.44 3.6 96.2001 5.52C97.96 7.44 98.84 9.96 98.84 13.08C98.84 14.84 98.52 16.56 97.8801 18.24C97.32 19.92 96.84 21.2 96.44 22.08C96.2 22.56 95.9601 22.8 95.7201 22.8C95.5601 22.8 95.44 22.68 95.36 22.44C95.28 22.12 95.3201 21.8 95.48 21.48C96.2 19.88 96.5601 18.48 96.5601 17.28C96.5601 15.28 95.68 13.84 93.92 12.96C92.24 12 89.9201 11.52 86.9601 11.52C83.6001 11.52 79.6401 12.04 75.08 13.08C70.52 14.12 65.68 15.56 60.56 17.4C55.52 19.24 50.48 21.36 45.44 23.76C40.4 26.16 35.64 28.8 31.16 31.68C26.76 34.48 22.96 37.36 19.76 40.32C14.48 45.2 10.6 49.8 8.12004 54.12C5.72004 58.36 4.52004 62.16 4.52004 65.52C4.52004 70.56 6.88004 74.52 11.6 77.4C16.32 80.28 22.64 81.72 30.56 81.72C32.64 81.72 34.8 81.6 37.04 81.36C39.28 81.12 41.6 80.8 44 80.4C49.68 79.36 55.44 77.84 61.2801 75.84C67.2001 73.76 72.8401 71.28 78.2001 68.4C83.6401 65.44 88.5601 62.2 92.9601 58.68C97.4401 55.08 101.08 51.28 103.88 47.28C104.68 46.24 105.16 45.72 105.32 45.72C105.4 45.72 105.44 45.84 105.44 46.08C105.44 46.24 105.44 46.44 105.44 46.68C105.44 46.84 105.36 47.12 105.2 47.52C104.4 49.84 102.68 52.44 100.04 55.32C97.4001 58.2 94.0801 61.16 90.0801 64.2C86.0801 67.16 81.6401 70.04 76.76 72.84C71.88 75.64 66.76 78.16 61.4 80.4C56.04 82.56 50.68 84.2 45.32 85.32C40.36 86.36 35.6 86.88 31.04 86.88ZM23.6 47.52C22.72 47.52 22 47.36 21.44 47.04C21.12 46.88 20.8 46.6 20.48 46.2C20.16 45.72 20 45.16 20 44.52C20 43.56 20.68 42.52 22.04 41.4C23.48 40.28 26.36 39.32 30.68 38.52C32.12 38.28 33.72 38.08 35.48 37.92C37.24 37.76 39.08 37.68 41 37.68C44.36 37.68 47.76 37.92 51.2001 38.4C54.7201 38.8 57.88 39.48 60.68 40.44C63.56 41.4 65.68 42.64 67.04 44.16C67.52 44.72 67.76 45.28 67.76 45.84C67.76 46.48 67.4401 46.8 66.8 46.8C66.3201 46.8 65.76 46.6 65.12 46.2C63.7601 45.24 61.88 44.52 59.48 44.04C57.16 43.56 54.48 43.32 51.44 43.32C46.08 43.32 40.2 44 33.8 45.36C31.8 45.76 29.92 46.24 28.16 46.8C26.4 47.28 24.88 47.52 23.6 47.52Z" fill="white"/>
<path d="M103.25 81.48C99.81 81.48 97.49 80.84 96.29 79.56C95.09 78.2 94.49 76.72 94.49 75.12C94.49 73.04 95.29 70.84 96.89 68.52C97.85 67.16 98.93 65.64 100.13 63.96C101.33 62.2 102.45 60.56 103.49 59.04C104.53 57.52 105.25 56.44 105.65 55.8C106.21 55 106.53 54.48 106.61 54.24C106.77 53.92 106.85 53.6 106.85 53.28C106.85 52.8 106.53 52.36 105.89 51.96C105.33 51.48 104.37 51.24 103.01 51.24C102.61 51.24 102.25 51.28 101.93 51.36C101.69 51.36 101.41 51.36 101.09 51.36C100.45 51.36 100.09 51.32 100.01 51.24L99.65 51.72C97.41 54.68 95.01 57.6 92.45 60.48C89.89 63.28 87.09 65.88 84.05 68.28C83.73 68.52 83.49 68.64 83.33 68.64C83.01 68.64 82.85 68.48 82.85 68.16C82.85 67.52 83.33 66.8 84.29 66C86.77 63.92 89.21 61.6 91.61 59.04C94.01 56.4 96.17 53.64 98.09 50.76C97.37 50.28 97.01 49.32 97.01 47.88C97.01 45.72 97.69 43.4 99.05 40.92C100.01 39.24 101.05 38 102.17 37.2C103.37 36.32 104.41 35.88 105.29 35.88C106.97 35.88 107.81 36.88 107.81 38.88C107.81 40.16 107.33 41.76 106.37 43.68C105.97 44.64 105.17 45.88 103.97 47.4C102.85 48.84 101.73 49.88 100.61 50.52C102.29 49.96 104.41 49.6 106.97 49.44C109.61 49.2 111.81 49.08 113.57 49.08C114.61 49.08 115.89 49.4 117.41 50.04C118.93 50.6 119.69 51.64 119.69 53.16C119.69 54.2 119.21 55.32 118.25 56.52C118.01 56.84 117.37 57.6 116.33 58.8C115.29 60 114.13 61.44 112.85 63.12C111.65 64.8 110.53 66.48 109.49 68.16C108.45 69.68 107.61 71.08 106.97 72.36C106.41 73.64 106.13 74.72 106.13 75.6C106.13 76.88 106.85 77.52 108.29 77.52C109.97 77.52 112.21 76.72 115.01 75.12C117.81 73.52 120.81 71.48 124.01 69C127.29 66.44 130.29 63.8 133.01 61.08C133.33 60.76 133.61 60.6 133.85 60.6C134.17 60.6 134.33 60.8 134.33 61.2C134.33 61.68 134.13 62.12 133.73 62.52C130.93 65.32 127.81 68.2 124.37 71.16C121.01 74.04 117.49 76.48 113.81 78.48C110.21 80.48 106.69 81.48 103.25 81.48Z" fill="white"/>
<path d="M155.369 44.64C154.249 44.64 153.409 44.28 152.849 43.56C152.289 42.84 152.009 42.08 152.009 41.28C152.009 39.68 152.769 38.12 154.289 36.6C155.809 35 157.409 34.2 159.089 34.2C160.209 34.2 161.049 34.56 161.609 35.28C162.169 36 162.449 36.76 162.449 37.56C162.449 39.24 161.689 40.84 160.169 42.36C158.729 43.88 157.129 44.64 155.369 44.64ZM137.009 81.48C133.729 81.48 131.489 80.8 130.289 79.44C129.169 78 128.609 76.4 128.609 74.64C128.609 73.2 128.849 71.84 129.329 70.56C129.809 69.2 130.209 68.24 130.529 67.68C131.009 66.88 131.649 65.96 132.449 64.92C133.329 63.88 134.289 62.76 135.329 61.56C133.729 62.92 132.209 64.24 130.769 65.52C129.409 66.8 128.289 67.76 127.409 68.4C127.169 68.64 126.929 68.76 126.689 68.76C126.369 68.76 126.209 68.56 126.209 68.16C126.209 67.52 126.649 66.88 127.529 66.24C129.609 64.48 131.609 62.56 133.529 60.48C135.529 58.4 137.409 56.48 139.169 54.72C140.929 52.88 142.489 51.6 143.849 50.88C145.289 50.08 146.449 49.56 147.329 49.32C148.209 49.08 148.929 48.96 149.489 48.96C150.369 48.96 151.009 49.12 151.409 49.44C151.809 49.68 151.889 49.96 151.649 50.28C150.289 51.64 148.929 53.4 147.569 55.56C146.289 57.64 145.089 59.84 143.969 62.16C142.849 64.48 141.929 66.68 141.209 68.76C140.569 70.84 140.249 72.6 140.249 74.04C140.249 76.04 141.049 77.04 142.649 77.04C144.169 77.04 146.129 76.36 148.529 75C151.009 73.56 153.569 71.76 156.209 69.6C158.929 67.44 161.449 65.32 163.769 63.24C164.089 62.92 164.369 62.76 164.609 62.76C165.009 62.76 165.209 62.96 165.209 63.36C165.289 63.76 165.209 64.04 164.969 64.2C162.329 66.68 159.329 69.28 155.969 72C152.689 74.64 149.369 76.88 146.009 78.72C142.729 80.56 139.729 81.48 137.009 81.48Z" fill="white"/>
<path d="M166.096 90.84C164.336 89.24 163.136 87.76 162.496 86.4C161.936 85.12 161.656 83.32 161.656 81C161.656 78.6 161.976 75.92 162.616 72.96C163.336 70 164.336 66.92 165.616 63.72C164.816 64.52 163.976 65.32 163.096 66.12C162.216 66.92 161.336 67.64 160.456 68.28C160.216 68.52 159.976 68.64 159.736 68.64C159.496 68.64 159.376 68.52 159.376 68.28C159.376 67.72 159.856 66.96 160.816 66C162.096 64.88 163.296 63.64 164.416 62.28C165.536 60.92 166.776 59.4 168.136 57.72C172.136 48.84 176.616 40.84 181.576 33.72C186.536 26.6 192.536 19.76 199.576 13.2C203.176 9.92 206.536 7.56 209.656 6.12C212.856 4.68 215.656 3.96 218.056 3.96C220.456 3.96 222.336 4.6 223.696 5.88C225.056 7.16 225.736 8.84 225.736 10.92C225.736 12.92 225.056 15.2 223.696 17.76C222.416 20.32 220.296 23 217.336 25.8C215.256 27.8 212.776 29.88 209.896 32.04C207.016 34.12 204.056 36.08 201.016 37.92C197.976 39.76 195.136 41.28 192.496 42.48C192.336 42.56 192.176 42.64 192.016 42.72C191.856 42.72 191.696 42.72 191.536 42.72C190.976 42.72 190.696 42.52 190.696 42.12C190.696 41.64 191.136 41.24 192.016 40.92C194.496 39.8 197.216 38.28 200.176 36.36C203.216 34.44 206.136 32.36 208.936 30.12C211.736 27.88 214.096 25.76 216.016 23.76C218.416 21.2 220.136 19.04 221.176 17.28C222.296 15.44 222.856 14.04 222.856 13.08C222.856 11.88 222.176 11.28 220.816 11.28C219.376 11.28 217.296 12.04 214.576 13.56C211.936 15 208.896 17.24 205.456 20.28C201.216 24.04 197.016 28.36 192.856 33.24C188.776 38.12 185.016 42.96 181.576 47.76C178.216 52.48 175.416 56.68 173.176 60.36C176.296 56.2 179.336 52.96 182.296 50.64C185.256 48.32 187.976 46.64 190.456 45.6C192.536 44.8 194.496 44.4 196.336 44.4C198.416 44.4 200.096 44.92 201.376 45.96C202.656 47 203.296 48.32 203.296 49.92C203.296 51.52 202.736 53.32 201.616 55.32C200.576 57.32 198.776 59.28 196.216 61.2C194.216 62.64 191.536 63.92 188.176 65.04C184.896 66.08 181.816 66.6 178.936 66.6C177.256 66.6 175.816 66.36 174.616 65.88C176.216 67.88 178.216 69.84 180.616 71.76C183.016 73.6 185.456 75.12 187.936 76.32C190.496 77.44 192.736 78 194.656 78C196.016 78 197.256 77.64 198.376 76.92C199.496 76.2 200.056 75.32 200.056 74.28C200.056 74.12 200.136 74.04 200.296 74.04C200.536 74.04 200.656 74.12 200.656 74.28C200.656 75.8 200.016 77.04 198.736 78C197.536 78.96 196.056 79.64 194.296 80.04C193.496 80.2 192.656 80.36 191.776 80.52C190.976 80.6 190.136 80.64 189.256 80.64C185.976 80.64 182.896 80.08 180.016 78.96C177.216 77.76 174.776 76.32 172.696 74.64C170.696 72.88 169.256 71.2 168.376 69.6C167.336 72.16 166.536 74.72 165.976 77.28C165.496 79.76 165.256 82.04 165.256 84.12C165.256 86.92 165.736 88.92 166.696 90.12C166.936 90.44 166.936 90.64 166.696 90.72C166.456 90.88 166.256 90.92 166.096 90.84ZM176.656 65.28C178.656 65.28 181.016 64.8 183.736 63.84C186.536 62.88 188.816 61.72 190.576 60.36C192.016 59.24 193.056 58.04 193.696 56.76C194.416 55.48 194.776 54.32 194.776 53.28C194.776 52.16 194.416 51.24 193.696 50.52C193.056 49.72 192.096 49.32 190.816 49.32C189.536 49.32 188.016 49.76 186.256 50.64C184.496 51.44 182.456 52.88 180.136 54.96C178.856 56.16 177.536 57.4 176.176 58.68C174.896 59.96 173.696 61.28 172.576 62.64C172.736 63.04 172.936 63.48 173.176 63.96C173.416 64.36 173.696 64.64 174.016 64.8C174.336 64.96 174.736 65.08 175.216 65.16C175.696 65.24 176.176 65.28 176.656 65.28Z" fill="white"/>
<path d="M262.39 92.64C262.07 92.64 261.79 92.48 261.55 92.16C261.39 91.92 261.43 91.6 261.67 91.2C262.23 90.32 262.99 89 263.95 87.24C264.99 85.48 266.23 83.48 267.67 81.24C266.31 81.88 264.79 82.48 263.11 83.04C261.43 83.68 259.99 84.12 258.79 84.36C257.59 84.68 257.03 84.68 257.11 84.36C257.51 83 258.23 80.4 259.27 76.56C260.31 72.64 261.47 67.96 262.75 62.52C264.03 57.08 265.19 51.32 266.23 45.24C267.27 39.08 267.95 33.12 268.27 27.36C268.35 26.72 268.39 26.12 268.39 25.56C268.39 24.92 268.39 24.32 268.39 23.76C268.39 17.84 267.51 13.24 265.75 9.96C263.99 6.68 261.75 5.04 259.03 5.04C256.55 5.04 253.87 6.48 250.99 9.36C248.19 12.16 245.43 16.6 242.71 22.68C241.11 26.36 239.87 30.24 238.99 34.32C238.19 38.4 237.95 42.36 238.27 46.2V46.44C238.27 47 238.15 47.4 237.91 47.64C237.67 47.8 237.43 47.6 237.19 47.04C236.71 46 236.35 44.68 236.11 43.08C235.87 41.48 235.75 39.76 235.75 37.92C235.75 34.64 236.11 31.2 236.83 27.6C237.55 24 238.55 20.92 239.83 18.36C241.51 15.24 243.63 12.44 246.19 9.96C248.75 7.48 251.51 5.52 254.47 4.08C257.43 2.64 260.35 1.92 263.23 1.92C266.35 1.92 269.23 2.96 271.87 5.04C274.59 7.12 276.59 10.64 277.87 15.6C278.51 17.92 278.99 20.4 279.31 23.04C279.63 25.6 279.79 28.4 279.79 31.44C279.79 36.88 279.23 43.04 278.11 49.92C276.99 56.72 275.27 64.4 272.95 72.96C275.83 68.64 279.03 63.96 282.55 58.92C286.07 53.88 289.83 48.8 293.83 43.68C297.83 38.48 301.91 33.52 306.07 28.8C310.23 24.08 314.39 19.8 318.55 15.96C322.71 12.12 326.71 9.08 330.55 6.84C332.63 5.64 334.95 4.56 337.51 3.6C340.15 2.64 342.55 2.16 344.71 2.16C347.11 2.16 348.83 2.84 349.87 4.2C350.03 4.52 350.11 4.72 350.11 4.8C350.11 5.12 349.91 5.28 349.51 5.28C349.11 5.28 348.71 5.24 348.31 5.16C344.71 4.92 340.63 6.08 336.07 8.64C331.51 11.2 326.71 14.72 321.67 19.2C316.71 23.68 311.67 28.76 306.55 34.44C301.51 40.04 296.63 45.8 291.91 51.72C287.27 57.64 282.99 63.32 279.07 68.76C275.15 74.12 271.83 78.84 269.11 82.92C266.47 87 264.63 90 263.59 91.92C263.35 92.4 262.95 92.64 262.39 92.64Z" fill="white"/>
<path d="M298.315 81.36C297.275 81.36 296.475 81.08 295.915 80.52C295.035 79.8 294.595 78.8 294.595 77.52C294.595 75.68 295.315 74 296.755 72.48C298.435 70.56 300.355 69.6 302.515 69.6C303.395 69.6 304.195 69.84 304.915 70.32C305.795 71.04 306.235 72.04 306.235 73.32C306.235 75.08 305.515 76.76 304.075 78.36C302.315 80.36 300.395 81.36 298.315 81.36Z" fill="white"/>
<path d="M399.805 91.32C397.965 91.32 396.645 90.68 395.845 89.4C395.125 88.2 394.765 86.84 394.765 85.32C394.765 83.32 395.245 81.44 396.205 79.68C398.285 75.84 400.885 71.84 404.005 67.68C407.125 63.44 410.365 59.24 413.725 55.08C417.165 50.84 420.285 46.84 423.085 43.08C421.165 42.84 419.125 42.72 416.965 42.72C411.525 42.72 405.605 43.4 399.205 44.76C397.205 45.16 395.325 45.64 393.565 46.2C391.885 46.68 390.365 46.92 389.005 46.92C388.125 46.92 387.405 46.76 386.845 46.44C386.605 46.28 386.285 46 385.885 45.6C385.565 45.12 385.405 44.56 385.405 43.92C385.405 43.04 386.125 42.04 387.565 40.92C389.005 39.72 391.845 38.72 396.085 37.92C398.885 37.44 402.245 37.2 406.165 37.2C409.445 37.2 412.805 37.4 416.245 37.8C419.765 38.2 422.885 38.84 425.605 39.72C428.645 35.48 430.845 31.8 432.205 28.68C433.565 25.48 434.245 22.76 434.245 20.52C434.245 16.92 432.725 14.4 429.685 12.96C426.725 11.52 422.925 10.8 418.285 10.8C415.325 10.8 412.125 11.04 408.685 11.52C405.325 11.92 401.885 12.52 398.365 13.32C397.645 13.48 396.045 13.88 393.565 14.52C391.085 15.08 388.125 15.84 384.685 16.8C381.325 17.68 377.845 18.72 374.245 19.92C370.645 21.12 367.245 22.4 364.045 23.76C360.925 25.12 358.365 26.56 356.365 28.08C354.445 29.52 353.485 31 353.485 32.52C353.485 33.8 354.365 35.04 356.125 36.24C356.285 36.4 356.365 36.52 356.365 36.6C356.365 36.76 356.165 36.84 355.765 36.84C355.285 36.84 354.845 36.72 354.445 36.48C352.125 34.88 350.965 32.56 350.965 29.52C350.965 27.28 351.725 24.92 353.245 22.44C354.765 19.96 357.125 17.84 360.325 16.08C364.405 13.76 368.965 11.68 374.005 9.84C379.045 7.92 384.245 6.32 389.605 5.04C395.045 3.68 400.365 2.68 405.565 2.04C410.765 1.32 415.605 0.960003 420.085 0.960003C426.005 0.960003 430.645 1.56 434.005 2.76C437.445 3.96 439.885 5.6 441.325 7.68C442.765 9.76 443.485 12.08 443.485 14.64C443.485 18.08 442.445 21.72 440.365 25.56C438.365 29.4 436.125 32.84 433.645 35.88C433.005 36.68 432.325 37.52 431.605 38.4C430.885 39.28 430.085 40.2 429.205 41.16C430.405 41.8 431.485 42.6 432.445 43.56C433.005 44.28 433.285 44.88 433.285 45.36C433.285 45.92 432.965 46.2 432.325 46.2C431.845 46.2 431.285 46 430.645 45.6C430.085 45.2 429.485 44.88 428.845 44.64C428.285 44.4 427.645 44.16 426.925 43.92C424.685 46.64 422.285 49.52 419.725 52.56C417.165 55.52 414.725 58.44 412.405 61.32C410.085 64.2 408.005 66.88 406.165 69.36C405.125 70.8 403.965 72.4 402.685 74.16C401.405 75.92 400.285 77.76 399.325 79.68C398.445 81.6 398.005 83.56 398.005 85.56C398.005 86.68 398.205 87.68 398.605 88.56C399.005 89.44 399.805 89.88 401.005 89.88C401.565 89.88 402.205 89.76 402.925 89.52L403.405 89.4C403.725 89.4 403.885 89.52 403.885 89.76C403.885 90.16 403.565 90.48 402.925 90.72C401.565 91.12 400.525 91.32 399.805 91.32Z" fill="white"/>
<path d="M440.601 82.56C437.081 82.56 434.121 81.72 431.721 80.04C429.401 78.28 428.241 75.76 428.241 72.48C428.241 68.96 429.081 65.68 430.761 62.64C432.441 59.6 434.681 56.96 437.481 54.72C440.281 52.4 443.321 50.6 446.601 49.32C449.961 48.04 453.281 47.4 456.561 47.4C459.841 47.4 462.281 48 463.881 49.2C465.481 50.32 466.281 51.72 466.281 53.4C466.281 55 465.521 56.72 464.001 58.56C462.561 60.32 460.441 61.88 457.641 63.24C455.881 64.04 453.841 64.76 451.521 65.4C449.281 65.96 447.321 66.24 445.641 66.24C444.361 66.24 443.721 66.04 443.721 65.64C443.721 65.32 444.281 65.16 445.401 65.16C446.441 65.16 448.041 64.88 450.201 64.32C452.441 63.68 454.601 62.84 456.681 61.8C459.001 60.52 460.641 59.24 461.601 57.96C462.561 56.68 463.041 55.52 463.041 54.48C463.041 53.52 462.641 52.72 461.841 52.08C461.121 51.44 460.081 51.12 458.721 51.12C457.441 51.12 456.001 51.48 454.401 52.2C452.081 53.24 449.681 54.96 447.201 57.36C444.801 59.68 442.801 62.24 441.201 65.04C439.601 67.84 438.801 70.52 438.801 73.08C438.801 74.84 439.281 76.32 440.241 77.52C441.281 78.72 442.801 79.32 444.801 79.32C446.881 79.32 449.281 78.68 452.001 77.4C454.721 76.04 457.481 74.4 460.281 72.48C463.081 70.48 465.681 68.48 468.081 66.48C470.481 64.48 472.401 62.8 473.841 61.44C474.321 60.96 474.681 60.72 474.921 60.72C475.161 60.72 475.281 60.92 475.281 61.32C475.281 61.88 475.041 62.36 474.561 62.76C471.521 65.56 468.201 68.48 464.601 71.52C461.081 74.56 457.281 77.16 453.201 79.32C449.201 81.4 445.001 82.48 440.601 82.56Z" fill="white"/>
<path d="M487.742 81.48C484.302 81.48 481.982 80.84 480.782 79.56C479.582 78.2 478.982 76.72 478.982 75.12C478.982 73.04 479.782 70.84 481.382 68.52C482.342 67.16 483.422 65.64 484.622 63.96C485.822 62.2 486.942 60.56 487.982 59.04C489.022 57.52 489.742 56.44 490.142 55.8C490.702 55 491.022 54.48 491.102 54.24C491.262 53.92 491.342 53.6 491.342 53.28C491.342 52.8 491.022 52.36 490.382 51.96C489.822 51.48 488.862 51.24 487.502 51.24C487.102 51.24 486.742 51.28 486.422 51.36C486.182 51.36 485.902 51.36 485.582 51.36C484.942 51.36 484.582 51.32 484.502 51.24L484.142 51.72C481.902 54.68 479.502 57.6 476.942 60.48C474.382 63.28 471.582 65.88 468.542 68.28C468.222 68.52 467.982 68.64 467.822 68.64C467.502 68.64 467.342 68.48 467.342 68.16C467.342 67.52 467.822 66.8 468.782 66C471.262 63.92 473.702 61.6 476.102 59.04C478.502 56.4 480.662 53.64 482.582 50.76C481.862 50.28 481.502 49.32 481.502 47.88C481.502 45.72 482.182 43.4 483.542 40.92C484.502 39.24 485.542 38 486.662 37.2C487.862 36.32 488.902 35.88 489.782 35.88C491.462 35.88 492.302 36.88 492.302 38.88C492.302 40.16 491.822 41.76 490.862 43.68C490.462 44.64 489.662 45.88 488.462 47.4C487.342 48.84 486.222 49.88 485.102 50.52C486.782 49.96 488.902 49.6 491.462 49.44C494.102 49.2 496.302 49.08 498.062 49.08C499.102 49.08 500.382 49.4 501.902 50.04C503.422 50.6 504.182 51.64 504.182 53.16C504.182 54.2 503.702 55.32 502.742 56.52C502.502 56.84 501.862 57.6 500.822 58.8C499.782 60 498.622 61.44 497.342 63.12C496.142 64.8 495.022 66.48 493.982 68.16C492.942 69.68 492.102 71.08 491.462 72.36C490.902 73.64 490.622 74.72 490.622 75.6C490.622 76.88 491.342 77.52 492.782 77.52C494.462 77.52 496.702 76.72 499.502 75.12C502.302 73.52 505.302 71.48 508.502 69C511.782 66.44 514.782 63.8 517.502 61.08C517.822 60.76 518.102 60.6 518.342 60.6C518.662 60.6 518.822 60.8 518.822 61.2C518.822 61.68 518.622 62.12 518.222 62.52C515.422 65.32 512.302 68.2 508.862 71.16C505.502 74.04 501.982 76.48 498.302 78.48C494.702 80.48 491.182 81.48 487.742 81.48Z" fill="white"/>
<path d="M512.502 81.96C511.702 81.96 510.742 81.76 509.622 81.36C508.502 81.04 507.382 80.4 506.262 79.44C507.142 78.24 508.422 76.64 510.102 74.64C511.702 72.56 513.422 70.28 515.262 67.8C517.102 65.32 518.822 62.84 520.422 60.36C519.142 61.64 517.742 63 516.222 64.44C514.702 65.88 513.182 67.2 511.662 68.4C511.342 68.72 510.982 68.88 510.582 68.88C510.262 68.88 510.102 68.72 510.102 68.4C510.102 68 510.422 67.52 511.062 66.96C513.302 64.96 515.782 62.68 518.502 60.12C521.302 57.48 523.342 54.8 524.622 52.08C525.022 51.12 525.222 50.24 525.222 49.44C525.222 48.4 525.022 47.76 524.622 47.52C524.302 47.28 524.142 46.96 524.142 46.56C524.142 45.84 524.502 45.48 525.222 45.48C525.622 45.48 525.942 45.56 526.182 45.72C527.062 46.12 527.902 46.88 528.702 48C529.502 49.12 529.902 50.8 529.902 53.04C529.902 54.32 529.742 55.8 529.422 57.48C529.102 59.08 528.542 60.92 527.742 63C528.942 61.4 530.142 59.84 531.342 58.32C532.622 56.8 533.782 55.44 534.822 54.24C536.982 51.76 539.142 50 541.302 48.96C543.542 47.84 545.542 47.28 547.302 47.28C549.382 47.28 551.062 47.88 552.342 49.08C553.622 50.28 554.262 51.84 554.262 53.76C554.262 55.28 553.862 56.84 553.062 58.44C552.822 59.08 552.262 60.08 551.382 61.44C550.502 62.72 549.542 64.12 548.502 65.64C547.462 67.16 546.502 68.52 545.622 69.72C544.582 71 543.862 72.12 543.462 73.08C543.062 73.96 542.862 74.68 542.862 75.24C542.862 76.04 543.302 76.44 544.182 76.44C545.302 76.44 546.862 75.84 548.862 74.64C550.062 73.92 551.422 72.96 552.942 71.76C554.542 70.48 556.102 69.2 557.622 67.92C559.222 66.56 560.502 65.44 561.462 64.56C561.782 64.24 562.062 64.08 562.302 64.08C562.622 64.08 562.782 64.28 562.782 64.68C562.782 65.16 562.582 65.6 562.182 66C559.782 68.24 556.982 70.68 553.782 73.32C550.662 75.96 547.582 78 544.542 79.44C542.062 80.64 539.782 81.24 537.702 81.24C535.942 81.24 534.542 80.8 533.502 79.92C532.462 78.96 531.942 77.6 531.942 75.84C531.942 74.56 532.262 73.04 532.902 71.28C533.702 69.12 534.822 66.96 536.262 64.8C537.782 62.64 539.342 60.6 540.942 58.68C542.622 56.68 544.062 55 545.262 53.64C546.302 52.52 546.822 51.56 546.822 50.76C546.822 50.04 546.342 49.68 545.382 49.68C544.422 49.68 542.982 50.24 541.062 51.36C539.222 52.4 537.142 54.12 534.822 56.52C531.542 59.96 528.662 63.68 526.182 67.68C523.702 71.68 520.862 75.44 517.662 78.96C515.902 80.96 514.182 81.96 512.502 81.96Z" fill="white"/>
<path d="M567.397 81.48C564.917 81.48 562.997 80.72 561.637 79.2C560.277 77.6 559.597 75.56 559.597 73.08C559.597 70.76 560.197 68.2 561.397 65.4C562.677 62.6 564.677 59.76 567.397 56.88C570.197 53.84 573.677 51.4 577.837 49.56C581.997 47.64 585.957 46.68 589.717 46.68C592.757 46.68 595.357 47.36 597.517 48.72C599.677 50 601.117 51.64 601.837 53.64C602.717 53.64 603.797 53.88 605.077 54.36C606.437 54.84 607.117 55.72 607.117 57C607.117 57.88 606.677 58.88 605.797 60C605.237 60.8 604.237 62 602.797 63.6C601.437 65.2 600.157 66.92 598.957 68.76C597.997 70.2 597.237 71.56 596.677 72.84C596.117 74.04 595.837 75.08 595.837 75.96C595.837 77.16 596.437 77.76 597.637 77.76C598.997 77.76 601.037 77 603.757 75.48C606.717 73.8 609.557 71.88 612.277 69.72C614.997 67.56 617.117 65.84 618.637 64.56C619.037 64.24 619.317 64.08 619.477 64.08C619.797 64.08 619.957 64.28 619.957 64.68C619.957 65.16 619.757 65.6 619.357 66C618.637 66.64 617.237 67.84 615.157 69.6C613.077 71.36 610.677 73.2 607.957 75.12C605.317 77.04 602.717 78.6 600.157 79.8C598.877 80.36 597.677 80.8 596.557 81.12C595.517 81.36 594.557 81.48 593.677 81.48C591.517 81.48 589.877 80.88 588.757 79.68C587.637 78.4 587.077 76.76 587.077 74.76C587.077 73.96 587.197 73.12 587.437 72.24C587.677 71.36 587.957 70.48 588.277 69.6L589.117 67.56C587.037 70.12 584.957 72.28 582.877 74.04C580.797 75.72 578.717 77.2 576.637 78.48C574.877 79.52 573.197 80.28 571.597 80.76C570.077 81.24 568.677 81.48 567.397 81.48ZM571.117 78.36C572.557 78.36 574.637 77.52 577.357 75.84C580.077 74.08 583.237 71.4 586.837 67.8C587.317 67.32 588.197 66.48 589.477 65.28C590.837 64 592.277 62.6 593.797 61.08C595.317 59.48 596.597 57.92 597.637 56.4C598.757 54.8 599.317 53.48 599.317 52.44C599.317 50.92 597.997 50.16 595.357 50.16C593.037 50.16 590.237 51.08 586.957 52.92C583.757 54.68 580.677 57.32 577.717 60.84C574.677 64.44 572.437 67.56 570.997 70.2C569.637 72.76 568.957 74.72 568.957 76.08C568.957 77.6 569.677 78.36 571.117 78.36Z" fill="white"/>
<path d="M617.267 81.96C616.467 81.96 615.507 81.76 614.387 81.36C613.267 81.04 612.147 80.4 611.027 79.44C611.907 78.24 613.187 76.64 614.867 74.64C616.467 72.56 618.187 70.28 620.027 67.8C621.867 65.32 623.587 62.84 625.187 60.36C623.907 61.64 622.507 63 620.987 64.44C619.467 65.88 617.947 67.2 616.427 68.4C616.107 68.72 615.747 68.88 615.347 68.88C615.027 68.88 614.867 68.72 614.867 68.4C614.867 68 615.187 67.52 615.827 66.96C618.067 64.96 620.547 62.68 623.267 60.12C626.067 57.48 628.107 54.8 629.387 52.08C629.787 51.12 629.987 50.24 629.987 49.44C629.987 48.4 629.787 47.76 629.387 47.52C629.067 47.28 628.907 46.96 628.907 46.56C628.907 45.84 629.267 45.48 629.987 45.48C630.387 45.48 630.707 45.56 630.947 45.72C631.827 46.12 632.667 46.88 633.467 48C634.267 49.12 634.667 50.8 634.667 53.04C634.667 54.32 634.507 55.8 634.187 57.48C633.867 59.08 633.307 60.92 632.507 63C633.707 61.4 634.907 59.84 636.107 58.32C637.387 56.8 638.547 55.44 639.587 54.24C641.747 51.76 643.907 50 646.067 48.96C648.307 47.84 650.307 47.28 652.067 47.28C654.147 47.28 655.827 47.88 657.107 49.08C658.387 50.28 659.027 51.84 659.027 53.76C659.027 55.28 658.627 56.84 657.827 58.44C657.587 59.08 657.027 60.08 656.147 61.44C655.267 62.72 654.307 64.12 653.267 65.64C652.227 67.16 651.267 68.52 650.387 69.72C649.347 71 648.627 72.12 648.227 73.08C647.827 73.96 647.627 74.68 647.627 75.24C647.627 76.04 648.067 76.44 648.947 76.44C650.067 76.44 651.627 75.84 653.627 74.64C654.827 73.92 656.187 72.96 657.707 71.76C659.307 70.48 660.867 69.2 662.387 67.92C663.987 66.56 665.267 65.44 666.227 64.56C666.547 64.24 666.827 64.08 667.067 64.08C667.387 64.08 667.547 64.28 667.547 64.68C667.547 65.16 667.347 65.6 666.947 66C664.547 68.24 661.747 70.68 658.547 73.32C655.427 75.96 652.347 78 649.307 79.44C646.827 80.64 644.547 81.24 642.467 81.24C640.707 81.24 639.307 80.8 638.267 79.92C637.227 78.96 636.707 77.6 636.707 75.84C636.707 74.56 637.027 73.04 637.667 71.28C638.467 69.12 639.587 66.96 641.027 64.8C642.547 62.64 644.107 60.6 645.707 58.68C647.387 56.68 648.827 55 650.027 53.64C651.067 52.52 651.587 51.56 651.587 50.76C651.587 50.04 651.107 49.68 650.147 49.68C649.187 49.68 647.747 50.24 645.827 51.36C643.987 52.4 641.907 54.12 639.587 56.52C636.307 59.96 633.427 63.68 630.947 67.68C628.467 71.68 625.627 75.44 622.427 78.96C620.667 80.96 618.947 81.96 617.267 81.96Z" fill="white"/>
<path d="M699.403 91.92C698.123 90.8 697.163 89.36 696.523 87.6C695.963 85.92 695.683 84 695.683 81.84C695.683 79.84 695.883 77.72 696.283 75.48C696.763 73.24 697.363 70.88 698.083 68.4C696.563 70.32 694.843 72.28 692.923 74.28C691.083 76.28 689.323 78 687.643 79.44C684.283 82.16 680.643 83.52 676.723 83.52C673.763 83.52 671.243 82.6 669.163 80.76C667.083 78.84 666.043 75.88 666.043 71.88C666.043 70.84 666.123 69.84 666.283 68.88C666.523 67.92 666.803 66.96 667.123 66C666.643 66.4 666.163 66.8 665.683 67.2C665.283 67.6 664.883 67.96 664.483 68.28C664.163 68.52 663.843 68.64 663.523 68.64C663.123 68.64 662.923 68.44 662.923 68.04C662.923 67.56 663.323 67 664.123 66.36C665.163 65.48 666.323 64.28 667.603 62.76C668.963 61.24 670.443 59.6 672.043 57.84C674.843 54.72 678.243 52.2 682.243 50.28C686.323 48.36 690.323 47.4 694.243 47.4C697.603 47.4 700.043 48 701.563 49.2C703.163 50.4 703.963 51.84 703.963 53.52C705.963 49.28 708.043 45.24 710.203 41.4C712.443 37.48 714.523 34.04 716.443 31.08C718.443 28.12 720.083 25.92 721.363 24.48C722.243 23.44 723.323 22.68 724.603 22.2C725.963 21.72 727.323 21.48 728.683 21.48C730.043 21.48 731.363 21.68 732.643 22.08C733.923 22.48 735.043 23.12 736.003 24C735.203 24.48 733.923 25.64 732.163 27.48C730.483 29.24 728.523 31.44 726.283 34.08C724.123 36.72 721.843 39.56 719.443 42.6C717.123 45.64 714.923 48.68 712.843 51.72C710.363 55.32 708.003 59.2 705.763 63.36C703.603 67.52 701.843 71.56 700.483 75.48C699.123 79.32 698.443 82.72 698.443 85.68C698.443 88.08 698.963 89.92 700.003 91.2C700.243 91.52 700.243 91.72 700.003 91.8C699.763 91.96 699.563 92 699.403 91.92ZM680.443 79.44C681.883 79.44 683.803 78.72 686.203 77.28C688.603 75.76 691.563 73.2 695.083 69.6C696.203 68.48 697.083 67.52 697.723 66.72C698.443 65.84 699.043 65 699.523 64.2C699.923 63.08 700.323 62 700.723 60.96C701.123 59.92 701.563 58.88 702.043 57.84C701.563 58.16 701.203 58.32 700.963 58.32C700.323 58.32 700.003 57.96 700.003 57.24C700.003 56.92 700.123 56.52 700.363 56.04C701.163 54.68 701.563 53.48 701.563 52.44C701.563 50.76 700.603 49.92 698.683 49.92C697.643 49.92 696.243 50.24 694.483 50.88C692.483 51.68 690.403 52.92 688.243 54.6C686.163 56.2 684.203 58.12 682.363 60.36C680.603 62.52 679.163 64.76 678.043 67.08C677.003 69.4 676.483 71.6 676.483 73.68C676.483 75.2 676.763 76.56 677.323 77.76C677.963 78.88 679.003 79.44 680.443 79.44Z" fill="white"/>
<path d="M725.953 82.56C722.433 82.56 719.473 81.72 717.073 80.04C714.753 78.28 713.593 75.76 713.593 72.48C713.593 68.96 714.433 65.68 716.113 62.64C717.793 59.6 720.033 56.96 722.833 54.72C725.633 52.4 728.673 50.6 731.953 49.32C735.313 48.04 738.633 47.4 741.913 47.4C745.193 47.4 747.633 48 749.233 49.2C750.833 50.32 751.633 51.72 751.633 53.4C751.633 55 750.873 56.72 749.353 58.56C747.913 60.32 745.793 61.88 742.993 63.24C741.233 64.04 739.193 64.76 736.873 65.4C734.633 65.96 732.673 66.24 730.993 66.24C729.713 66.24 729.073 66.04 729.073 65.64C729.073 65.32 729.633 65.16 730.753 65.16C731.793 65.16 733.393 64.88 735.553 64.32C737.793 63.68 739.953 62.84 742.033 61.8C744.353 60.52 745.993 59.24 746.953 57.96C747.913 56.68 748.393 55.52 748.393 54.48C748.393 53.52 747.993 52.72 747.193 52.08C746.473 51.44 745.433 51.12 744.073 51.12C742.793 51.12 741.353 51.48 739.753 52.2C737.433 53.24 735.033 54.96 732.553 57.36C730.153 59.68 728.153 62.24 726.553 65.04C724.953 67.84 724.153 70.52 724.153 73.08C724.153 74.84 724.633 76.32 725.593 77.52C726.633 78.72 728.153 79.32 730.153 79.32C732.233 79.32 734.633 78.68 737.353 77.4C740.073 76.04 742.833 74.4 745.633 72.48C748.433 70.48 751.033 68.48 753.433 66.48C755.833 64.48 757.753 62.8 759.193 61.44C759.673 60.96 760.033 60.72 760.273 60.72C760.513 60.72 760.633 60.92 760.633 61.32C760.633 61.88 760.393 62.36 759.913 62.76C756.873 65.56 753.553 68.48 749.953 71.52C746.433 74.56 742.633 77.16 738.553 79.32C734.553 81.4 730.353 82.48 725.953 82.56Z" fill="white"/>
<path d="M761.934 82.68C758.734 82.68 755.934 82.08 753.534 80.88C751.054 79.6 749.254 77.28 748.134 73.92C748.054 73.6 748.174 73.4 748.494 73.32C748.734 73.24 748.894 73.4 748.974 73.8C749.774 75.56 750.814 76.8 752.094 77.52C753.374 78.24 754.774 78.6 756.294 78.6C758.854 78.6 761.094 77.84 763.014 76.32C765.014 74.8 766.774 72.88 768.294 70.56C769.894 68.24 771.294 65.88 772.494 63.48C773.774 61 774.974 58.88 776.094 57.12C777.854 54.16 779.934 51.48 782.334 49.08C784.814 46.68 787.054 45.2 789.054 44.64C788.574 44.4 787.974 44.28 787.254 44.28C785.254 44.28 783.054 44.88 780.654 46.08C778.254 47.28 775.814 48.84 773.334 50.76C770.934 52.68 768.574 54.72 766.254 56.88C764.014 58.96 761.934 60.92 760.014 62.76C758.174 64.52 756.694 65.92 755.574 66.96C754.934 67.52 754.454 67.8 754.134 67.8C753.814 67.8 753.654 67.64 753.654 67.32C753.654 66.84 753.854 66.4 754.254 66C756.654 63.92 759.134 61.6 761.694 59.04C764.254 56.4 766.854 53.88 769.494 51.48C772.134 49 774.814 46.96 777.534 45.36C780.254 43.76 783.014 42.96 785.814 42.96C786.134 42.96 786.414 42.96 786.654 42.96C786.974 42.96 787.294 43 787.614 43.08C788.494 43.16 789.294 43.4 790.014 43.8C790.814 44.2 791.054 44.48 790.734 44.64C788.894 45.44 787.454 47.04 786.414 49.44C785.374 51.84 784.414 54.64 783.534 57.84C782.654 61.04 781.574 64.28 780.294 67.56C779.094 70.84 777.334 73.76 775.014 76.32C776.134 75.92 777.894 75 780.294 73.56C782.694 72.12 785.334 70.36 788.214 68.28C791.094 66.12 793.774 63.76 796.254 61.2C796.574 60.88 796.894 60.72 797.214 60.72C797.614 60.72 797.814 60.92 797.814 61.32C797.814 61.64 797.654 61.96 797.334 62.28C795.174 64.36 792.774 66.6 790.134 69C787.494 71.32 784.614 73.52 781.494 75.6C778.454 77.68 775.294 79.4 772.014 80.76C768.734 82.04 765.374 82.68 761.934 82.68Z" fill="white"/>
</svg>
